<?xml version="1.0" standalone="no"?>
<!DOCTYPE svg PUBLIC "-//W3C//DTD SVG 1.1//EN" 
"http://www.w3.org/Graphics/SVG/1.1/DTD/svg11.dtd">
<svg 
 xmlns="http://www.w3.org/2000/svg"
 xmlns:xlink="http://www.w3.org/1999/xlink"
 width="51px" height="51px">
<path fill-rule="evenodd"  stroke="rgb(102, 102, 102)" stroke-width="2px" stroke-linecap="butt" stroke-linejoin="miter" fill="none"
 d="M28.852,3.490 L32.945,12.130 C33.570,13.449 34.778,14.363 36.176,14.575 L45.329,15.960 C48.848,16.493 50.253,20.999 47.707,23.584 L41.084,30.309 C40.072,31.337 39.611,32.816 39.850,34.266 L41.413,43.762 C42.014,47.413 38.335,50.198 35.187,48.474 L27.001,43.990 C25.751,43.305 24.258,43.305 23.008,43.990 L14.821,48.474 C11.673,50.198 7.994,47.413 8.596,43.762 L10.159,34.266 C10.398,32.816 9.936,31.337 8.925,30.309 L2.302,23.584 C-0.244,20.999 1.161,16.493 4.680,15.960 L13.833,14.575 C15.230,14.363 16.438,13.449 17.063,12.130 L21.157,3.490 C22.731,0.168 27.278,0.168 28.852,3.490 Z"/>
</svg>