<?xml version="1.0" standalone="no"?>
<!DOCTYPE svg PUBLIC "-//W3C//DTD SVG 1.1//EN" 
"http://www.w3.org/Graphics/SVG/1.1/DTD/svg11.dtd">
<svg 
 xmlns="http://www.w3.org/2000/svg"
 xmlns:xlink="http://www.w3.org/1999/xlink"
 width="51px" height="48px">
<path fill-rule="evenodd"  stroke="rgb(102, 102, 102)" stroke-width="2px" stroke-linecap="butt" stroke-linejoin="miter" fill="none"
 d="M48.123,19.487 C47.082,17.833 45.279,16.802 43.428,16.748 L31.953,16.693 C32.716,14.521 33.105,12.238 33.105,9.939 C33.105,8.796 33.005,7.625 32.784,6.363 L32.570,5.451 C31.960,2.837 29.637,1.007 26.914,1.007 C23.711,1.007 21.105,3.579 21.105,6.744 C21.105,6.928 21.112,7.108 21.130,7.257 C20.971,12.869 14.079,18.763 11.752,18.763 L11.798,18.660 L3.389,18.763 C2.276,18.763 1.000,20.033 1.000,21.132 L1.000,43.632 C1.000,44.748 2.162,45.966 3.389,46.000 L10.558,46.000 L11.752,46.000 L11.752,46.000 L39.230,46.000 C40.219,45.932 41.433,45.813 42.260,45.292 C43.156,44.724 43.880,43.924 44.207,43.220 L44.552,42.655 C46.489,38.103 48.854,24.155 48.951,23.567 L48.989,23.002 C49.085,21.750 48.785,20.535 48.123,19.487 L48.123,19.487 Z"/>
<path fill-rule="evenodd"  stroke="rgb(102, 102, 102)" stroke-width="2px" stroke-linecap="butt" stroke-linejoin="miter" fill="none"
 d="M13.005,20.015 L13.005,45.014 "/>
</svg>